Coordinates
version=1
nRows=22
nColumns=24
inDegrees=yes

Units are S.I. units (second, meters, Newtons, ...)
Angles are in degrees.

endheader
time	pelvis_tilt	pelvis_list	pelvis_rotation	pelvis_tx	pelvis_ty	pelvis_tz	hip_flexion_r	hip_adduction_r	hip_rotation_r	knee_angle_r	ankle_angle_r	subtalar_angle_r	mtp_angle_r	hip_flexion_l	hip_adduction_l	hip_rotation_l	knee_angle_l	ankle_angle_l	subtalar_angle_l	mtp_angle_l	lumbar_extension	lumbar_bending	lumbar_rotation
      4.31000000	      7.96542571	     -1.64573394	      4.47744827	     -0.09213266	      0.74658931	     -0.19774188	      2.45760562	      7.42818961	      8.07086249	     -9.01288560	      9.43102468	    -17.76907762	      0.00000000	      2.89795072	     -3.56251010	     -2.70683892	    -64.26145323	    -19.89641539	    -24.82175684	      0.00000000	    -27.78841708	      1.06932733	     -8.55404798
      4.32000000	      7.87022377	     -1.47930386	      3.98718846	     -0.08327553	      0.74774505	     -0.19728802	      1.61984100	      7.27328346	      8.37760572	     -8.74889957	     10.24487545	    -17.26935075	      0.00000000	      4.70991017	     -3.21655609	     -2.94293257	    -65.18410217	    -17.22580122	    -24.72577390	      0.00000000	    -27.77029772	      0.69152852	     -7.95205653
      4.33000000	      7.77137087	     -1.27672258	      3.47154066	     -0.07446897	      0.74883780	     -0.19686292	      0.79698475	      7.05824700	      8.66450362	     -8.49229538	     11.09391318	    -16.72992880	      0.00000000	      6.43345586	     -2.82807503	     -3.20517318	    -65.70955949	    -14.28044447	    -24.27038682	      0.00000000	    -27.75990746	      0.27379409	     -7.34546858
      4.34000000	      7.63971772	     -1.00043572	      2.90701394	     -0.06567241	      0.74985395	     -0.19640996	     -0.02028832	      6.74204259	      9.02188349	     -8.17801456	     11.80926831	    -16.22949668	      0.00000000	      8.08343025	     -2.38462315	     -3.55195093	    -65.82617259	    -11.37608200	    -23.60809284	      0.00000000	    -27.70803720	     -0.25016848	     -6.75107949
      4.35000000	      7.50723203	     -0.71495659	      2.35688833	     -0.05693891	      0.75077823	     -0.19597744	     -0.82708906	      6.40244252	      9.35354775	     -7.85364362	     12.51721409	    -15.77332718	      0.00000000	      9.64698101	     -1.95085331	     -3.89935729	    -65.56853620	     -8.62913170	    -22.87996900	      0.00000000	    -27.68445535	     -0.77995054	     -6.18677468
      4.36000000	      7.37330305	     -0.41116654	      1.81523042	     -0.04823890	      0.75159664	     -0.19556216	     -1.63178249	      6.02867631	      9.67272539	     -7.50891404	     13.17212641	    -15.34503570	      0.00000000	     11.11191132	     -1.51951816	     -4.26042554	    -64.94114199	     -6.18017800	    -22.22899315	      0.00000000	    -27.66330580	     -1.32583819	     -5.65016176
      4.37000000	      7.24147010	     -0.10203507	      1.29585057	     -0.03957048	      0.75229592	     -0.19516273	     -2.42987826	      5.63889769	      9.96412642	     -7.15792057	     13.79356406	    -14.95630802	      0.00000000	     12.46441532	     -1.11431646	     -4.63511654	    -63.94401994	     -4.06061044	    -21.77452791	      0.00000000	    -27.65525191	     -1.87818694	     -5.13788657
      4.38000000	      7.11998643	      0.20313079	      0.79307064	     -0.03091382	      0.75287304	     -0.19479650	     -3.22876984	      5.24211412	     10.22790993	     -6.80538592	     14.35909495	    -14.59108017	      0.00000000	     13.68135358	     -0.73427752	     -5.01910359	    -62.57709463	     -2.29027219	    -21.57557687	      0.00000000	    -27.66705583	     -2.42389550	     -4.64429163
      4.39000000	      7.00828831	      0.49470007	      0.31417670	     -0.02225751	      0.75331117	     -0.19446466	     -4.01875785	      4.85076230	     10.46643770	     -6.46960345	     14.88662756	    -14.25665724	      0.00000000	     14.75490598	     -0.38667947	     -5.39638162	    -60.84443161	     -0.84078355	    -21.65714789	      0.00000000	    -27.68980323	     -2.95480379	     -4.14858348
      4.40000000	      6.86707125	      0.74870729	     -0.14339834	     -0.01359607	      0.75353209	     -0.19418028	     -4.73855000	      4.49613444	     10.71744307	     -6.19033034	     15.37244468	    -14.05244939	      0.00000000	     15.73446366	     -0.11265363	     -5.80501223	    -58.77439038	      0.29827492	    -22.06355849	      0.00000000	    -27.68039638	     -3.43829899	     -3.66593548
      4.41000000	      6.77359342	      0.97535612	     -0.56931460	     -0.00486727	      0.75364762	     -0.19395456	     -5.49334244	      4.16181908	     10.91465123	     -5.93601493	     15.83100611	    -13.81751867	      0.00000000	     16.50668550	      0.11022437	     -6.22129725	    -56.34521558	      1.26504706	    -22.51871675	      0.00000000	    -27.71653988	     -3.88586148	     -3.17658428
      4.42000000	      6.73940977	      1.17963533	     -0.94172686	      0.00394618	      0.75367380	     -0.19384400	     -6.29263363	      3.84188884	     10.99184199	     -5.71781496	     16.30558999	    -13.47173713	      0.00000000	     17.04680823	      0.33060441	     -6.57887774	    -53.54130701	      1.95377562	    -23.14657700	      0.00000000	    -27.81275217	     -4.28862620	     -2.69924565
      4.43000000	      6.60852196	      1.32114044	     -1.31980091	      0.01283618	      0.75339118	     -0.19374685	     -6.92588598	      3.59532719	     11.13244084	     -5.61787082	     16.79954285	    -13.27881253	      0.00000000	     17.55118281	      0.42422969	     -7.04564984	    -50.43890897	      2.51456258	    -23.73854290	      0.00000000	    -27.77737613	     -4.62778734	     -2.20573783
      4.44000000	      6.55272493	      1.43466163	     -1.61403948	      0.02183092	      0.75305515	     -0.19384022	     -7.59921394	      3.37267549	     10.98819959	     -5.60045452	     17.38868452	    -12.78287652	      0.00000000	     17.77844164	      0.58994075	     -7.30558470	    -46.93109499	      2.68231223	    -24.64254208	      0.00000000	    -27.82587495	     -4.89490972	     -1.75570094
      4.45000000	      6.40907937	      1.48071744	     -1.91880076	      0.03096325	      0.75244152	     -0.19392185	     -8.21279208	      3.22625157	     11.13784053	     -5.55465628	     17.86387875	    -12.63500574	      0.00000000	     17.95205998	      0.61900597	     -7.70197118	    -43.15737476	      3.05064804	    -24.79178193	      0.00000000	    -27.73869764	     -5.10018531	     -1.24587924
      4.46000000	      6.29363988	      1.47618787	     -2.18015538	      0.04021639	      0.75170637	     -0.19411431	     -8.84211986	      3.13614997	     11.25048848	     -5.56462381	     18.34057573	    -12.49681476	      0.00000000	     17.90798194	      0.65241289	     -7.99903915	    -39.03907551	      3.30038539	    -24.76029732	      0.00000000	    -27.67267894	     -5.22730214	     -0.75850735
      4.47000000	      6.18773342	      1.40253576	     -2.40715872	      0.04960689	      0.75082464	     -0.19438933	     -9.49005243	      3.12109687	     11.32243555	     -5.59002289	     18.83447493	    -12.35244585	      0.00000000	     17.67379869	      0.66631857	     -8.18349451	    -34.61268981	      3.46830977	    -24.39666191	      0.00000000	    -27.60070437	     -5.26314223	     -0.26564431
      4.48000000	      6.07974689	      1.24509116	     -2.60889965	      0.05915217	      0.74977159	     -0.19471584	    -10.14612070	      3.19713722	     11.37383285	     -5.63379174	     19.33949815	    -12.21471186	      0.00000000	     17.27615146	      0.63802708	     -8.23902219	    -29.93223787	      3.56954002	    -23.64586581	      0.00000000	    -27.50624494	     -5.20414540	      0.25002126
      4.49000000	      5.97702457	      1.00041230	     -2.78593465	      0.06885026	      0.74854594	     -0.19509270	    -10.81567023	      3.37075787	     11.42956772	     -5.70569859	     19.83691927	    -12.08672469	      0.00000000	     16.72552771	      0.56007205	     -8.14192291	    -25.05338014	      3.56371879	    -22.58375352	      0.00000000	    -27.39709024	     -5.03930031	      0.76544014
      4.50000000	      5.91018527	      0.66236057	     -2.92463552	      0.07874779	      0.74715896	     -0.19552564	    -11.55649332	      3.64424699	     11.45155413	     -5.76434728	     20.33432151	    -11.97316082	      0.00000000	     16.02521503	      0.41430584	     -7.86555100	    -20.08472181	      3.42749169	    -21.31960546	      0.00000000	    -27.30000309	     -4.76037916	      1.31310218
      4.51000000	      5.86844759	      0.21481232	     -3.02788438	      0.08885000	      0.74559039	     -0.19598010	    -12.35669736	      4.03804824	     11.44848690	     -5.81426396	     20.81486532	    -11.87718220	      0.00000000	     15.24063751	      0.15581725	     -7.40794618	    -15.17265601	      3.14951532	    -19.99488634	      0.00000000	    -27.20489506	     -4.36149541	      1.87135890
      4.52000000	      5.87835827	     -0.31579632	     -3.08300118	      0.09917427	      0.74387343	     -0.19648926	    -13.24967849	      4.52133695	     11.42279125	     -5.85203108	     21.27372871	    -11.77479519	      0.00000000	     14.40259868	     -0.20911382	     -6.84726309	    -10.48615721	      2.79239826	    -18.70287074	      0.00000000	    -27.13706042	     -3.85787808	      2.41469267
